<?xml version="1.0" encoding="UTF-8" standalone="no"?>
<!-- Uploaded to: SVG Repo, www.svgrepo.com, Generator: SVG Repo Mixer Tools -->

<svg
   height="256"
   width="768"
   version="1.1"
   id="Layer_1"
   viewBox="0 0 491.52 163.84"
   xml:space="preserve"
   sodipodi:docname="music-player-right-arrow-svgrepo-com.svg"
   inkscape:version="1.2.2 (732a01da63, 2022-12-09)"
   xmlns:inkscape="http://www.inkscape.org/namespaces/inkscape"
   xmlns:sodipodi="http://sodipodi.sourceforge.net/DTD/sodipodi-0.dtd"
   xmlns="http://www.w3.org/2000/svg"
   xmlns:svg="http://www.w3.org/2000/svg"><defs
   id="defs17"><filter
     inkscape:collect="always"
     style="color-interpolation-filters:sRGB"
     id="filter1272"
     x="-0.13597046"
     y="-0.13583462"
     width="1.2719409"
     height="1.2716692"><feGaussianBlur
       inkscape:collect="always"
       stdDeviation="2.6925457"
       id="feGaussianBlur1274" /></filter><filter
     inkscape:collect="always"
     style="color-interpolation-filters:sRGB"
     id="filter1276"
     x="-0.227096"
     y="-0.22686912"
     width="1.454192"
     height="1.4537382"><feGaussianBlur
       inkscape:collect="always"
       stdDeviation="5.1225601"
       id="feGaussianBlur1278" /></filter><filter
     inkscape:collect="always"
     style="color-interpolation-filters:sRGB"
     id="filter1614"
     x="-0.11648883"
     y="-0.10066434"
     width="1.2329777"
     height="1.2013287"><feGaussianBlur
       inkscape:collect="always"
       stdDeviation="3.0966576"
       id="feGaussianBlur1616" /></filter><filter
     inkscape:collect="always"
     style="color-interpolation-filters:sRGB"
     id="filter1746"
     x="-0.11616056"
     y="-0.11604451"
     width="1.2323211"
     height="1.232089"><feGaussianBlur
       inkscape:collect="always"
       stdDeviation="2.1642817"
       id="feGaussianBlur1744" /></filter><filter
     inkscape:collect="always"
     style="color-interpolation-filters:sRGB"
     id="filter1756"
     x="-0.11648883"
     y="-0.10066433"
     width="1.2329777"
     height="1.2013287"><feGaussianBlur
       inkscape:collect="always"
       stdDeviation="3.0966575"
       id="feGaussianBlur1754" /></filter></defs><sodipodi:namedview
   id="namedview15"
   pagecolor="#ffffff"
   bordercolor="#000000"
   borderopacity="0.25"
   inkscape:showpageshadow="2"
   inkscape:pageopacity="0.0"
   inkscape:pagecheckerboard="0"
   inkscape:deskcolor="#d1d1d1"
   showgrid="false"
   inkscape:zoom="1.28375"
   inkscape:cx="621.61636"
   inkscape:cy="149.95131"
   inkscape:window-width="2560"
   inkscape:window-height="1361"
   inkscape:window-x="-9"
   inkscape:window-y="-9"
   inkscape:window-maximized="1"
   inkscape:current-layer="Layer_1" />






<g
   id="g1694"><circle
     style="fill:#ff5050;stroke-width:0.32"
     cx="81.919998"
     cy="81.919998"
     r="77.238724"
     id="circle2" /><path
     d="M 81.92,163.84 C 36.74944,163.84 0,127.09056 0,81.92 0,36.74944 36.74944,0 81.92,0 c 45.17056,0 81.92,36.74944 81.92,81.92 0,45.17056 -36.74944,81.92 -81.92,81.92 z m 0,-154.47776 c -40.00832,0 -72.55776,32.54944 -72.55776,72.55776 0,40.00832 32.54944,72.55776 72.55776,72.55776 40.00832,0 72.55776,-32.54944 72.55776,-72.55776 0,-40.00832 -32.54944,-72.55776 -72.55776,-72.55776 z"
     id="path4"
     style="stroke-width:0.32" /><path
     style="fill:none;fill-opacity:1;stroke:#ffffff;stroke-width:4.48;stroke-linecap:round;stroke-dasharray:none;stroke-opacity:1;filter:url(#filter1272)"
     id="path1216"
     sodipodi:type="arc"
     sodipodi:cx="81.919998"
     sodipodi:cy="81.919998"
     sodipodi:rx="64"
     sodipodi:ry="64.064003"
     sodipodi:start="3.1415927"
     sodipodi:end="4.712389"
     sodipodi:arc-type="arc"
     d="m 17.919998,81.919998 a 64,64.064003 0 0 1 64,-64.064003"
     sodipodi:open="true" /><path
     style="fill:none;fill-opacity:1;stroke:#000000;stroke-width:4.48;stroke-linecap:round;stroke-dasharray:none;stroke-opacity:1;filter:url(#filter1276)"
     id="path1270"
     sodipodi:type="arc"
     sodipodi:cx="-81.919998"
     sodipodi:cy="-81.919998"
     sodipodi:rx="64"
     sodipodi:ry="64.064003"
     sodipodi:start="3.1415927"
     sodipodi:end="4.712389"
     sodipodi:arc-type="arc"
     d="M -145.92,-81.919998 A 64,64.064003 0 0 1 -81.919998,-145.984"
     transform="scale(-1)"
     sodipodi:open="true" /><g
     id="g1620"
     transform="translate(-157.25554,-11.985815)"><path
       style="fill:#000000;fill-opacity:1;stroke-width:0.32"
       d="m 274.19596,89.594981 -53.77664,-31.89504 c -3.3408,-1.98144 -7.56832,0.42656 -7.56832,4.31072 v 63.790399 c 0,3.88448 4.22752,6.29184 7.56832,4.31072 l 53.77664,-31.895039 c 3.27328,-1.94176 3.27328,-6.68032 0,-8.62176 z"
       id="path1612" /><path
       style="fill:#7bffcd;stroke-width:0.32;filter:url(#filter1614)"
       d="M 274.19596,89.594981 220.41932,57.699945 c -3.3408,-1.98144 -7.56832,0.42656 -7.56832,4.31072 v 63.790395 c 0,3.88448 4.22752,6.29184 7.56832,4.31072 l 53.77664,-31.895039 c 3.27328,-1.94176 3.27328,-6.68032 0,-8.62176 z"
       id="path1610" /></g></g><circle
   style="fill:#b09f9f;fill-opacity:1;stroke-width:0.32"
   cx="245.75999"
   cy="81.919998"
   r="77.238724"
   id="circle1696" /><path
   d="m 245.76,163.84 c -45.17056,0 -81.92,-36.74944 -81.92,-81.92 0,-45.17056 36.74944,-81.92 81.92,-81.92 45.17056,0 81.92,36.74944 81.92,81.92 0,45.17056 -36.74944,81.92 -81.92,81.92 z m 0,-154.47776 c -40.00832,0 -72.55776,32.54944 -72.55776,72.55776 0,40.00832 32.54944,72.55776 72.55776,72.55776 40.00832,0 72.55776,-32.54944 72.55776,-72.55776 0,-40.00832 -32.54944,-72.55776 -72.55776,-72.55776 z"
   id="path1698"
   style="fill:#9f9f9f;fill-opacity:1;stroke-width:0.32" /><path
   style="fill:none;fill-opacity:1;stroke:#ffffff;stroke-width:4.48;stroke-linecap:round;stroke-dasharray:none;stroke-opacity:1;filter:url(#filter1272)"
   id="path1700"
   sodipodi:type="arc"
   sodipodi:cx="245.75999"
   sodipodi:cy="81.919998"
   sodipodi:rx="64"
   sodipodi:ry="64.064003"
   sodipodi:start="3.1415927"
   sodipodi:end="4.712389"
   sodipodi:arc-type="arc"
   d="m 181.75999,81.919998 a 64,64.064003 0 0 1 64,-64.064003"
   sodipodi:open="true" /><path
   style="fill:none;fill-opacity:1;stroke:#000000;stroke-width:4.48;stroke-linecap:round;stroke-dasharray:none;stroke-opacity:1;filter:url(#filter1276)"
   id="path1702"
   sodipodi:type="arc"
   sodipodi:cx="-81.919998"
   sodipodi:cy="-81.919998"
   sodipodi:rx="64"
   sodipodi:ry="64.064003"
   sodipodi:start="3.1415927"
   sodipodi:end="4.712389"
   sodipodi:arc-type="arc"
   d="M -145.92,-81.919998 A 64,64.064003 0 0 1 -81.919998,-145.984"
   transform="rotate(180,81.92,0)"
   sodipodi:open="true" /><path
   style="fill:#000000;fill-opacity:1;stroke-width:0.32"
   d="m 280.78042,77.609166 -53.77664,-31.89504 c -3.3408,-1.98144 -7.56832,0.42656 -7.56832,4.31072 v 63.790404 c 0,3.88448 4.22752,6.29184 7.56832,4.31072 l 53.77664,-31.895044 c 3.27328,-1.94176 3.27328,-6.68032 0,-8.62176 z"
   id="path1704" /><path
   style="fill:#b5c5bf;fill-opacity:1;stroke-width:0.32;filter:url(#filter1614)"
   d="M 280.78042,77.609166 227.00378,45.71413 c -3.3408,-1.98144 -7.56832,0.42656 -7.56832,4.31072 v 63.7904 c 0,3.88448 4.22752,6.29184 7.56832,4.31072 l 53.77664,-31.895044 c 3.27328,-1.94176 3.27328,-6.68032 0,-8.62176 z"
   id="path1706" /><circle
   style="fill:#ff6d6d;fill-opacity:1;stroke-width:0.32"
   cx="409.60001"
   cy="81.919998"
   r="77.238724"
   id="circle1712" /><path
   d="m 409.6,163.84 c -45.17056,0 -81.92,-36.74944 -81.92,-81.92 C 327.68,36.74944 364.42944,0 409.6,0 c 45.17056,0 81.92,36.74944 81.92,81.92 0,45.17056 -36.74944,81.92 -81.92,81.92 z m 0,-154.47776 c -40.00832,0 -72.55776,32.54944 -72.55776,72.55776 0,40.00832 32.54944,72.55776 72.55776,72.55776 40.00832,0 72.55776,-32.54944 72.55776,-72.55776 0,-40.00832 -32.54944,-72.55776 -72.55776,-72.55776 z"
   id="path1714"
   style="fill:#000000;fill-opacity:1;stroke-width:0.32" /><path
   style="mix-blend-mode:normal;fill:none;fill-opacity:1;stroke:#ffffff;stroke-width:4.48;stroke-linecap:round;stroke-dasharray:none;stroke-opacity:1;filter:url(#filter1746)"
   id="path1716"
   sodipodi:type="arc"
   sodipodi:cx="409.60001"
   sodipodi:cy="81.919998"
   sodipodi:rx="64"
   sodipodi:ry="64.064003"
   sodipodi:start="3.1415927"
   sodipodi:end="4.712389"
   sodipodi:arc-type="arc"
   d="m 345.60001,81.919998 a 64,64.064003 0 0 1 64,-64.064003"
   sodipodi:open="true" /><path
   style="fill:none;fill-opacity:1;stroke:#000000;stroke-width:4.48;stroke-linecap:round;stroke-dasharray:none;stroke-opacity:1;filter:url(#filter1276)"
   id="path1718"
   sodipodi:type="arc"
   sodipodi:cx="-81.919998"
   sodipodi:cy="-81.919998"
   sodipodi:rx="64"
   sodipodi:ry="64.064003"
   sodipodi:start="3.1415927"
   sodipodi:end="4.712389"
   sodipodi:arc-type="arc"
   d="M -145.92,-81.919998 A 64,64.064003 0 0 1 -81.919998,-145.984"
   transform="rotate(180,163.84,0)"
   sodipodi:open="true" /><path
   style="fill:#000000;fill-opacity:1;stroke-width:0.32"
   d="m 444.62042,77.609166 -53.77664,-31.89504 c -3.3408,-1.98144 -7.56832,0.42656 -7.56832,4.31072 v 63.790404 c 0,3.88448 4.22752,6.29184 7.56832,4.31072 l 53.77664,-31.895044 c 3.27328,-1.94176 3.27328,-6.68032 0,-8.62176 z"
   id="path1720" /><path
   style="fill:#abffdf;fill-opacity:1;stroke-width:0.32;filter:url(#filter1756)"
   d="M 444.62042,77.609166 390.84378,45.71413 c -3.3408,-1.98144 -7.56832,0.42656 -7.56832,4.31072 v 63.7904 c 0,3.88448 4.22752,6.29184 7.56832,4.31072 l 53.77664,-31.895044 c 3.27328,-1.94176 3.27328,-6.68032 0,-8.62176 z"
   id="path1722" /></svg>
